# xmcd
#
# Track frame offsets: 
#        150
#        15800
#        33755
#        51842
#        71605
#        88860
#        102382
#        118612
#        137645
#        153975
#        158627
#        175512
#        182627
#        202025
#        217442
#        239087
#        248777
#        268170
#
# Disc length: 3793 seconds
#
# Revision: 12
# Processed by: cddbd v1.5.2PL0 Copyright (c) Steve Scherf et al.
# Submitted via: ExactAudioCopy v1.5
#
DISCID=fc0ecf12
DTITLE=Moby - Play RE reissue
DYEAR=2000
DGENRE=Rock
TTITLE0=Honey
TTITLE1=Find My Baby
TTITLE2=Porcelain
TTITLE3=Why Does My Heart Feel So Bad
TTITLE4=South Side [featuring Gwen Stefani]
TTITLE5=Rushing
TTITLE6=Bodyrock
TTITLE7=Natural Blues
TTITLE8=Machete
TTITLE9=7
TTITLE10=Run On
TTITLE11=Down Slow
TTITLE12=If Things Were Perfect
TTITLE13=Everloving
TTITLE14=Inside
TTITLE15=Guitar Flute And String
TTITLE16=The Sky Is Broken
TTITLE17=My Weakness
EXTD=YEAR: 1999
EXTT0=
EXTT1=
EXTT2=
EXTT3=
EXTT4=
EXTT5=
EXTT6=
EXTT7=
EXTT8=
EXTT9=
EXTT10=
EXTT11=
EXTT12=
EXTT13=
EXTT14=
EXTT15=
EXTT16=
EXTT17=
PLAYORDER=
